<mxfile host="app.diagrams.net" agent="Mozilla/5.0 (Macintosh; Intel Mac OS X 10_15_7) AppleWebKit/605.1.15 (KHTML, like Gecko) Version/18.6 Safari/605.1.15" version="28.2.8">
  <diagram name="Page-1" id="KTQfin-8lxrAEj8ONaxQ">
    <mxGraphModel dx="946" dy="652" grid="1" gridSize="10" guides="1" tooltips="1" connect="1" arrows="1" fold="1" page="1" pageScale="1" pageWidth="827" pageHeight="1169" math="0" shadow="0">
      <root>
        <mxCell id="0" />
        <mxCell id="1" parent="0" />
        <mxCell id="vJD4vsp7e5RfkJeFW35a-16" style="edgeStyle=orthogonalEdgeStyle;rounded=0;orthogonalLoop=1;jettySize=auto;html=1;entryX=0.5;entryY=0;entryDx=0;entryDy=0;exitX=0.5;exitY=1;exitDx=0;exitDy=0;" edge="1" parent="1" source="vJD4vsp7e5RfkJeFW35a-34" target="vJD4vsp7e5RfkJeFW35a-4">
          <mxGeometry relative="1" as="geometry">
            <mxPoint x="90" y="290" as="sourcePoint" />
          </mxGeometry>
        </mxCell>
        <mxCell id="vJD4vsp7e5RfkJeFW35a-2" value="Website" style="whiteSpace=wrap;html=1;" vertex="1" parent="1">
          <mxGeometry x="270" y="150" width="120" height="60" as="geometry" />
        </mxCell>
        <mxCell id="vJD4vsp7e5RfkJeFW35a-6" value="" style="edgeStyle=orthogonalEdgeStyle;rounded=0;orthogonalLoop=1;jettySize=auto;html=1;" edge="1" parent="1" source="vJD4vsp7e5RfkJeFW35a-4" target="vJD4vsp7e5RfkJeFW35a-5">
          <mxGeometry relative="1" as="geometry" />
        </mxCell>
        <mxCell id="vJD4vsp7e5RfkJeFW35a-4" value="Demande de connexion&amp;nbsp;" style="whiteSpace=wrap;html=1;aspect=fixed;" vertex="1" parent="1">
          <mxGeometry x="50" y="330" width="80" height="80" as="geometry" />
        </mxCell>
        <mxCell id="vJD4vsp7e5RfkJeFW35a-8" value="" style="edgeStyle=orthogonalEdgeStyle;rounded=0;orthogonalLoop=1;jettySize=auto;html=1;entryX=1;entryY=0.5;entryDx=0;entryDy=0;exitX=1;exitY=0.5;exitDx=0;exitDy=0;" edge="1" parent="1" source="vJD4vsp7e5RfkJeFW35a-5" target="vJD4vsp7e5RfkJeFW35a-4">
          <mxGeometry relative="1" as="geometry">
            <mxPoint x="250" y="510" as="targetPoint" />
            <Array as="points">
              <mxPoint x="220" y="470" />
              <mxPoint x="220" y="370" />
            </Array>
          </mxGeometry>
        </mxCell>
        <mxCell id="vJD4vsp7e5RfkJeFW35a-13" value="" style="edgeStyle=orthogonalEdgeStyle;rounded=0;orthogonalLoop=1;jettySize=auto;html=1;" edge="1" parent="1" source="vJD4vsp7e5RfkJeFW35a-5" target="vJD4vsp7e5RfkJeFW35a-12">
          <mxGeometry relative="1" as="geometry" />
        </mxCell>
        <mxCell id="vJD4vsp7e5RfkJeFW35a-5" value="Validation du contrat&amp;nbsp;" style="whiteSpace=wrap;html=1;" vertex="1" parent="1">
          <mxGeometry x="30" y="440" width="120" height="60" as="geometry" />
        </mxCell>
        <mxCell id="vJD4vsp7e5RfkJeFW35a-27" value="" style="edgeStyle=orthogonalEdgeStyle;rounded=0;orthogonalLoop=1;jettySize=auto;html=1;" edge="1" parent="1" source="vJD4vsp7e5RfkJeFW35a-12" target="vJD4vsp7e5RfkJeFW35a-26">
          <mxGeometry relative="1" as="geometry" />
        </mxCell>
        <mxCell id="vJD4vsp7e5RfkJeFW35a-31" value="" style="edgeStyle=orthogonalEdgeStyle;rounded=0;orthogonalLoop=1;jettySize=auto;html=1;" edge="1" parent="1" source="vJD4vsp7e5RfkJeFW35a-12" target="vJD4vsp7e5RfkJeFW35a-30">
          <mxGeometry relative="1" as="geometry" />
        </mxCell>
        <mxCell id="vJD4vsp7e5RfkJeFW35a-12" value="Contrat approuvé" style="whiteSpace=wrap;html=1;" vertex="1" parent="1">
          <mxGeometry x="30" y="540" width="120" height="60" as="geometry" />
        </mxCell>
        <mxCell id="vJD4vsp7e5RfkJeFW35a-39" value="" style="edgeStyle=orthogonalEdgeStyle;rounded=0;orthogonalLoop=1;jettySize=auto;html=1;" edge="1" parent="1" source="vJD4vsp7e5RfkJeFW35a-26" target="vJD4vsp7e5RfkJeFW35a-38">
          <mxGeometry relative="1" as="geometry" />
        </mxCell>
        <mxCell id="vJD4vsp7e5RfkJeFW35a-41" style="edgeStyle=orthogonalEdgeStyle;rounded=0;orthogonalLoop=1;jettySize=auto;html=1;entryX=0;entryY=0.5;entryDx=0;entryDy=0;" edge="1" parent="1" source="vJD4vsp7e5RfkJeFW35a-26" target="vJD4vsp7e5RfkJeFW35a-40">
          <mxGeometry relative="1" as="geometry" />
        </mxCell>
        <mxCell id="vJD4vsp7e5RfkJeFW35a-43" style="edgeStyle=orthogonalEdgeStyle;rounded=0;orthogonalLoop=1;jettySize=auto;html=1;entryX=0;entryY=0.5;entryDx=0;entryDy=0;" edge="1" parent="1" source="vJD4vsp7e5RfkJeFW35a-26" target="vJD4vsp7e5RfkJeFW35a-42">
          <mxGeometry relative="1" as="geometry">
            <Array as="points">
              <mxPoint x="188" y="670" />
              <mxPoint x="188" y="890" />
            </Array>
          </mxGeometry>
        </mxCell>
        <mxCell id="vJD4vsp7e5RfkJeFW35a-26" value="Proposition choix profil" style="whiteSpace=wrap;html=1;" vertex="1" parent="1">
          <mxGeometry x="30" y="640" width="120" height="60" as="geometry" />
        </mxCell>
        <mxCell id="vJD4vsp7e5RfkJeFW35a-30" value="1er&amp;nbsp;&lt;div&gt;Reward&lt;/div&gt;" style="whiteSpace=wrap;html=1;" vertex="1" parent="1">
          <mxGeometry x="240" y="540" width="120" height="60" as="geometry" />
        </mxCell>
        <mxCell id="vJD4vsp7e5RfkJeFW35a-32" value="Actor" style="shape=umlActor;verticalLabelPosition=bottom;verticalAlign=top;html=1;outlineConnect=0;" vertex="1" parent="1">
          <mxGeometry x="315" y="50" width="30" height="60" as="geometry" />
        </mxCell>
        <mxCell id="vJD4vsp7e5RfkJeFW35a-37" value="" style="edgeStyle=orthogonalEdgeStyle;rounded=0;orthogonalLoop=1;jettySize=auto;html=1;entryX=0.5;entryY=0;entryDx=0;entryDy=0;" edge="1" parent="1" source="vJD4vsp7e5RfkJeFW35a-2" target="vJD4vsp7e5RfkJeFW35a-34">
          <mxGeometry relative="1" as="geometry">
            <mxPoint x="270" y="190" as="sourcePoint" />
            <mxPoint x="90" y="330" as="targetPoint" />
          </mxGeometry>
        </mxCell>
        <mxCell id="vJD4vsp7e5RfkJeFW35a-34" value="Détection&lt;div&gt;Wallet&lt;/div&gt;" style="whiteSpace=wrap;html=1;aspect=fixed;" vertex="1" parent="1">
          <mxGeometry x="50" y="200" width="80" height="80" as="geometry" />
        </mxCell>
        <mxCell id="vJD4vsp7e5RfkJeFW35a-45" style="edgeStyle=orthogonalEdgeStyle;rounded=0;orthogonalLoop=1;jettySize=auto;html=1;entryX=0;entryY=0.5;entryDx=0;entryDy=0;" edge="1" parent="1" source="vJD4vsp7e5RfkJeFW35a-38" target="vJD4vsp7e5RfkJeFW35a-44">
          <mxGeometry relative="1" as="geometry" />
        </mxCell>
        <mxCell id="vJD4vsp7e5RfkJeFW35a-38" value="Funambule" style="whiteSpace=wrap;html=1;" vertex="1" parent="1">
          <mxGeometry x="225" y="680" width="120" height="60" as="geometry" />
        </mxCell>
        <mxCell id="vJD4vsp7e5RfkJeFW35a-46" style="edgeStyle=orthogonalEdgeStyle;rounded=0;orthogonalLoop=1;jettySize=auto;html=1;entryX=0;entryY=0.5;entryDx=0;entryDy=0;" edge="1" parent="1" source="vJD4vsp7e5RfkJeFW35a-40" target="vJD4vsp7e5RfkJeFW35a-44">
          <mxGeometry relative="1" as="geometry" />
        </mxCell>
        <mxCell id="vJD4vsp7e5RfkJeFW35a-40" value="Safe" style="whiteSpace=wrap;html=1;" vertex="1" parent="1">
          <mxGeometry x="225" y="770" width="120" height="60" as="geometry" />
        </mxCell>
        <mxCell id="vJD4vsp7e5RfkJeFW35a-47" style="edgeStyle=orthogonalEdgeStyle;rounded=0;orthogonalLoop=1;jettySize=auto;html=1;entryX=0;entryY=0.5;entryDx=0;entryDy=0;" edge="1" parent="1" source="vJD4vsp7e5RfkJeFW35a-42" target="vJD4vsp7e5RfkJeFW35a-44">
          <mxGeometry relative="1" as="geometry" />
        </mxCell>
        <mxCell id="vJD4vsp7e5RfkJeFW35a-42" value="Mix" style="whiteSpace=wrap;html=1;" vertex="1" parent="1">
          <mxGeometry x="225" y="860" width="120" height="60" as="geometry" />
        </mxCell>
        <mxCell id="vJD4vsp7e5RfkJeFW35a-44" value="Profil OK!" style="whiteSpace=wrap;html=1;" vertex="1" parent="1">
          <mxGeometry x="400" y="770" width="120" height="60" as="geometry" />
        </mxCell>
      </root>
    </mxGraphModel>
  </diagram>
</mxfile>
